<svg width="19" height="19" viewBox="0 0 19 19" fill="none" xmlns="http://www.w3.org/2000/svg">
<path d="M18.7969 9.20312C18.7969 14.2859 14.5891 18.4062 9.39844 18.4062C4.20781 18.4062 0 14.2859 0 9.20312C0 4.12037 4.20781 0 9.39844 0C14.5891 0 18.7969 4.12037 18.7969 9.20312ZM8.31133 14.0761L15.2844 7.24798C15.5211 7.01612 15.5211 6.64017 15.2844 6.40831L14.4269 5.56863C14.1901 5.33674 13.8062 5.33674 13.5693 5.56863L7.88256 11.1372L5.22754 8.53735C4.99076 8.30549 4.60683 8.30549 4.37001 8.53735L3.51252 9.37702C3.27574 9.60888 3.27574 9.98483 3.51252 10.2167L7.4538 14.0761C7.69062 14.308 8.07451 14.308 8.31133 14.0761Z" fill="#D1241A"/>
</svg>
