<svg width="14" height="16" viewBox="0 0 14 16" fill="none" xmlns="http://www.w3.org/2000/svg">
<g clip-path="url(#clip0_15_126)">
<path d="M7.00352 4.40586C5.01602 4.40586 3.41289 6.00898 3.41289 7.99648C3.41289 9.98398 5.01602 11.5871 7.00352 11.5871C8.99102 11.5871 10.5941 9.98398 10.5941 7.99648C10.5941 6.00898 8.99102 4.40586 7.00352 4.40586ZM7.00352 10.3309C5.71914 10.3309 4.66914 9.28398 4.66914 7.99648C4.66914 6.70898 5.71602 5.66211 7.00352 5.66211C8.29102 5.66211 9.33789 6.70898 9.33789 7.99648C9.33789 9.28398 8.28789 10.3309 7.00352 10.3309ZM11.5785 4.25898C11.5785 4.72461 11.2035 5.09648 10.741 5.09648C10.2754 5.09648 9.90352 4.72148 9.90352 4.25898C9.90352 3.79648 10.2785 3.42148 10.741 3.42148C11.2035 3.42148 11.5785 3.79648 11.5785 4.25898ZM13.9566 5.10898C13.9035 3.98711 13.6473 2.99336 12.8254 2.17461C12.0066 1.35586 11.0129 1.09961 9.89102 1.04336C8.73477 0.977734 5.26914 0.977734 4.11289 1.04336C2.99414 1.09648 2.00039 1.35273 1.17852 2.17148C0.356641 2.99023 0.103516 3.98398 0.0472656 5.10586C-0.0183594 6.26211 -0.0183594 9.72773 0.0472656 10.884C0.100391 12.0059 0.356641 12.9996 1.17852 13.8184C2.00039 14.6371 2.99102 14.8934 4.11289 14.9496C5.26914 15.0152 8.73477 15.0152 9.89102 14.9496C11.0129 14.8965 12.0066 14.6402 12.8254 13.8184C13.6441 12.9996 13.9004 12.0059 13.9566 10.884C14.0223 9.72773 14.0223 6.26523 13.9566 5.10898ZM12.4629 12.1246C12.2191 12.7371 11.7473 13.209 11.1316 13.4559C10.2098 13.8215 8.02227 13.7371 7.00352 13.7371C5.98477 13.7371 3.79414 13.8184 2.87539 13.4559C2.26289 13.2121 1.79102 12.7402 1.54414 12.1246C1.17852 11.2027 1.26289 9.01523 1.26289 7.99648C1.26289 6.97773 1.18164 4.78711 1.54414 3.86836C1.78789 3.25586 2.25977 2.78398 2.87539 2.53711C3.79727 2.17148 5.98477 2.25586 7.00352 2.25586C8.02227 2.25586 10.2129 2.17461 11.1316 2.53711C11.7441 2.78086 12.216 3.25273 12.4629 3.86836C12.8285 4.79023 12.7441 6.97773 12.7441 7.99648C12.7441 9.01523 12.8285 11.2059 12.4629 12.1246Z" fill="white"/>
</g>
<defs>
<clipPath id="clip0_15_126">
<path d="M0 0H14V16H0V0Z" fill="white"/>
</clipPath>
</defs>
</svg>
